<svg height="4542" width="720" xmlns="http://www.w3.org/2000/svg">
<rect height="4542" fill="#555" width="720"></rect>
<text fill="#7f7" font-family="Courier New" font-size="12" xml:space="preserve">
<tspan x="10" y="26"></tspan>
<tspan x="10" y="42">&gt; npmdoc-feedparser@0.0.1 test /home/travis/build/npmdoc/node-npmdoc-feedparser</tspan>
<tspan x="10" y="58">&gt; (set -e; export PORT=$(utility2 shServerPortRandom); utility2 test test.js)</tspan>
<tspan x="10" y="74"></tspan>
<tspan x="10" y="90"></tspan>
<tspan x="10" y="106">[MODE_BUILD=npmTest] - 2017-04-04T08:44:20Z - npm-testing /home/travis/build/npmdoc/node-npmdoc-\</tspan>
<tspan x="10" y="122">feedparser</tspan>
<tspan x="10" y="138"></tspan>
<tspan x="10" y="154"></tspan>
<tspan x="10" y="170">covering $ /home/travis/.nvm/versions/node/v6.10.1/bin/node /home/travis/build/npmdoc/node-npmdo\</tspan>
<tspan x="10" y="186">c-feedparser/test.js</tspan>
<tspan x="10" y="202">merging file:///home/travis/build/npmdoc/node-npmdoc-feedparser/tmp/build/test-report.json to te\</tspan>
<tspan x="10" y="218">st-report</tspan>
<tspan x="10" y="234">&gt; server listening on http-port 62913</tspan>
<tspan x="10" y="250">{ text: 'I need another test outline',</tspan>
<tspan x="10" y="266">  created: 'Thu, 16 Oct 2014 17:25:11 GMT',</tspan>
<tspan x="10" y="282">  type: 'idea',</tspan>
<tspan x="10" y="298">  name: 'iNeedAnotherTestOutline',</tspan>
<tspan x="10" y="314">  subs: </tspan>
<tspan x="10" y="330">   [ { '@': { text: 'United States' },</tspan>
<tspan x="10" y="346">       'source:outline': </tspan>
<tspan x="10" y="362">        [ { '@': { text: 'Far West' },</tspan>
<tspan x="10" y="378">            'source:outline': </tspan>
<tspan x="10" y="394">             [ { '@': { text: 'Alaska' } },</tspan>
<tspan x="10" y="410">               { '@': { text: 'California' } },</tspan>
<tspan x="10" y="426">               { '@': { text: 'Hawaii' } },</tspan>
<tspan x="10" y="442">               { '@': { text: 'Nevada' },</tspan>
<tspan x="10" y="458">                 'source:outline': </tspan>
<tspan x="10" y="474">                  [ { '@': { text: 'Reno', created: 'Tue, 12 Jul 2005 23:56:35 GMT' } },</tspan>
<tspan x="10" y="490">                    { '@': { text: 'Las Vegas', created: 'Tue, 12 Jul 2005 23:56:37 GMT' } },</tspan>
<tspan x="10" y="506">                    { '@': { text: 'Ely', created: 'Tue, 12 Jul 2005 23:56:39 GMT' } },</tspan>
<tspan x="10" y="522">                    { '@': { text: 'Gerlach', created: 'Tue, 12 Jul 2005 23:56:47 GMT' } } ] },</tspan>
<tspan x="10" y="538">               { '@': { text: 'Oregon' } },</tspan>
<tspan x="10" y="554">               { '@': { text: 'Washington' } } ] },</tspan>
<tspan x="10" y="570">          { '@': { text: 'Great Plains' },</tspan>
<tspan x="10" y="586">            'source:outline': </tspan>
<tspan x="10" y="602">             [ { '@': { text: 'Kansas' } },</tspan>
<tspan x="10" y="618">               { '@': { text: 'Nebraska' } },</tspan>
<tspan x="10" y="634">               { '@': { text: 'North Dakota' } },</tspan>
<tspan x="10" y="650">               { '@': { text: 'Oklahoma' } },</tspan>
<tspan x="10" y="666">               { '@': { text: 'South Dakota' } } ] },</tspan>
<tspan x="10" y="682">          { '@': { text: 'Mid-Atlantic' },</tspan>
<tspan x="10" y="698">            'source:outline': </tspan>
<tspan x="10" y="714">             [ { '@': { text: 'Delaware' } },</tspan>
<tspan x="10" y="730">               { '@': { text: 'Maryland' } },</tspan>
<tspan x="10" y="746">               { '@': { text: 'New Jersey' } },</tspan>
<tspan x="10" y="762">               { '@': { text: 'New York' } },</tspan>
<tspan x="10" y="778">               { '@': { text: 'Pennsylvania' } } ] },</tspan>
<tspan x="10" y="794">          { '@': { text: 'Midwest' },</tspan>
<tspan x="10" y="810">            'source:outline': </tspan>
<tspan x="10" y="826">             [ { '@': { text: 'Illinois' } },</tspan>
<tspan x="10" y="842">               { '@': { text: 'Indiana' } },</tspan>
<tspan x="10" y="858">               { '@': { text: 'Iowa' } },</tspan>
<tspan x="10" y="874">               { '@': { text: 'Kentucky' } },</tspan>
<tspan x="10" y="890">               { '@': { text: 'Michigan' } },</tspan>
<tspan x="10" y="906">               { '@': { text: 'Minnesota' } },</tspan>
<tspan x="10" y="922">               { '@': { text: 'Missouri' } },</tspan>
<tspan x="10" y="938">               { '@': { text: 'Ohio' } },</tspan>
<tspan x="10" y="954">               { '@': { text: 'West Virginia' } },</tspan>
<tspan x="10" y="970">               { '@': { text: 'Wisconsin' } } ] },</tspan>
<tspan x="10" y="986">          { '@': { text: 'Mountains' },</tspan>
<tspan x="10" y="1002">            'source:outline': </tspan>
<tspan x="10" y="1018">             [ { '@': { text: 'Colorado' } },</tspan>
<tspan x="10" y="1034">               { '@': { text: 'Idaho' } },</tspan>
<tspan x="10" y="1050">               { '@': { text: 'Montana' } },</tspan>
<tspan x="10" y="1066">               { '@': { text: 'Utah' } },</tspan>
<tspan x="10" y="1082">               { '@': { text: 'Wyoming' } } ] },</tspan>
<tspan x="10" y="1098">          { '@': { text: 'New England' },</tspan>
<tspan x="10" y="1114">            'source:outline': </tspan>
<tspan x="10" y="1130">             [ { '@': { text: 'Connecticut' } },</tspan>
<tspan x="10" y="1146">               { '@': { text: 'Maine' } },</tspan>
<tspan x="10" y="1162">               { '@': { text: 'Massachusetts' } },</tspan>
<tspan x="10" y="1178">               { '@': { text: 'New Hampshire' } },</tspan>
<tspan x="10" y="1194">               { '@': { text: 'Rhode Island' } },</tspan>
<tspan x="10" y="1210">               { '@': { text: 'Vermont' } } ] },</tspan>
<tspan x="10" y="1226">          { '@': { text: 'South' },</tspan>
<tspan x="10" y="1242">            'source:outline': </tspan>
<tspan x="10" y="1258">             [ { '@': { text: 'Alabama' } },</tspan>
<tspan x="10" y="1274">               { '@': { text: 'Arkansas' } },</tspan>
<tspan x="10" y="1290">               { '@': { text: 'Florida' } },</tspan>
<tspan x="10" y="1306">               { '@': { text: 'Georgia' } },</tspan>
<tspan x="10" y="1322">               { '@': { text: 'Louisiana' } },</tspan>
<tspan x="10" y="1338">               { '@': { text: 'Mississippi' } },</tspan>
<tspan x="10" y="1354">               { '@': { text: 'North Carolina' } },</tspan>
<tspan x="10" y="1370">               { '@': { text: 'South Carolina' } },</tspan>
<tspan x="10" y="1386">               { '@': { text: 'Tennessee' } },</tspan>
<tspan x="10" y="1402">               { '@': { text: 'Virginia' } } ] },</tspan>
<tspan x="10" y="1418">          { '@': { text: 'Southwest' },</tspan>
<tspan x="10" y="1434">            'source:outline': </tspan>
<tspan x="10" y="1450">             [ { '@': { text: 'Arizona' } },</tspan>
<tspan x="10" y="1466">               { '@': { text: 'New Mexico' } },</tspan>
<tspan x="10" y="1482">               { '@': { text: 'Texas' } } ] } ] } ] }</tspan>
<tspan x="10" y="1498">{ subs: </tspan>
<tspan x="10" y="1514">   [ { text: 'I need another test outline',</tspan>
<tspan x="10" y="1530">       created: 'Thu, 16 Oct 2014 17:25:11 GMT',</tspan>
<tspan x="10" y="1546">       type: 'idea',</tspan>
<tspan x="10" y="1562">       name: 'iNeedAnotherTestOutline',</tspan>
<tspan x="10" y="1578">       subs: </tspan>
<tspan x="10" y="1594">        [ { text: 'United States',</tspan>
<tspan x="10" y="1610">            subs: </tspan>
<tspan x="10" y="1626">             [ { text: 'Far West',</tspan>
<tspan x="10" y="1642">                 subs: </tspan>
<tspan x="10" y="1658">                  [ { text: 'Alaska' },</tspan>
<tspan x="10" y="1674">                    { text: 'California' },</tspan>
<tspan x="10" y="1690">                    { text: 'Hawaii' },</tspan>
<tspan x="10" y="1706">                    { text: 'Nevada',</tspan>
<tspan x="10" y="1722">                      subs: </tspan>
<tspan x="10" y="1738">                       [ { text: 'Reno', created: 'Tue, 12 Jul 2005 23:56:35 GMT' },</tspan>
<tspan x="10" y="1754">                         { text: 'Las Vegas', created: 'Tue, 12 Jul 2005 23:56:37 GMT' },</tspan>
<tspan x="10" y="1770">                         { text: 'Ely', created: 'Tue, 12 Jul 2005 23:56:39 GMT' },</tspan>
<tspan x="10" y="1786">                         { text: 'Gerlach', created: 'Tue, 12 Jul 2005 23:56:47 GMT' } ] },</tspan>
<tspan x="10" y="1802">                    { text: 'Oregon' },</tspan>
<tspan x="10" y="1818">                    { text: 'Washington' } ] },</tspan>
<tspan x="10" y="1834">               { text: 'Great Plains',</tspan>
<tspan x="10" y="1850">                 subs: </tspan>
<tspan x="10" y="1866">                  [ { text: 'Kansas' },</tspan>
<tspan x="10" y="1882">                    { text: 'Nebraska' },</tspan>
<tspan x="10" y="1898">                    { text: 'North Dakota' },</tspan>
<tspan x="10" y="1914">                    { text: 'Oklahoma' },</tspan>
<tspan x="10" y="1930">                    { text: 'South Dakota' } ] },</tspan>
<tspan x="10" y="1946">               { text: 'Mid-Atlantic',</tspan>
<tspan x="10" y="1962">                 subs: </tspan>
<tspan x="10" y="1978">                  [ { text: 'Delaware' },</tspan>
<tspan x="10" y="1994">                    { text: 'Maryland' },</tspan>
<tspan x="10" y="2010">                    { text: 'New Jersey' },</tspan>
<tspan x="10" y="2026">                    { text: 'New York' },</tspan>
<tspan x="10" y="2042">                    { text: 'Pennsylvania' } ] },</tspan>
<tspan x="10" y="2058">               { text: 'Midwest',</tspan>
<tspan x="10" y="2074">                 subs: </tspan>
<tspan x="10" y="2090">                  [ { text: 'Illinois' },</tspan>
<tspan x="10" y="2106">                    { text: 'Indiana' },</tspan>
<tspan x="10" y="2122">                    { text: 'Iowa' },</tspan>
<tspan x="10" y="2138">                    { text: 'Kentucky' },</tspan>
<tspan x="10" y="2154">                    { text: 'Michigan' },</tspan>
<tspan x="10" y="2170">                    { text: 'Minnesota' },</tspan>
<tspan x="10" y="2186">                    { text: 'Missouri' },</tspan>
<tspan x="10" y="2202">                    { text: 'Ohio' },</tspan>
<tspan x="10" y="2218">                    { text: 'West Virginia' },</tspan>
<tspan x="10" y="2234">                    { text: 'Wisconsin' } ] },</tspan>
<tspan x="10" y="2250">               { text: 'Mountains',</tspan>
<tspan x="10" y="2266">                 subs: </tspan>
<tspan x="10" y="2282">                  [ { text: 'Colorado' },</tspan>
<tspan x="10" y="2298">                    { text: 'Idaho' },</tspan>
<tspan x="10" y="2314">                    { text: 'Montana' },</tspan>
<tspan x="10" y="2330">                    { text: 'Utah' },</tspan>
<tspan x="10" y="2346">                    { text: 'Wyoming' } ] },</tspan>
<tspan x="10" y="2362">               { text: 'New England',</tspan>
<tspan x="10" y="2378">                 subs: </tspan>
<tspan x="10" y="2394">                  [ { text: 'Connecticut' },</tspan>
<tspan x="10" y="2410">                    { text: 'Maine' },</tspan>
<tspan x="10" y="2426">                    { text: 'Massachusetts' },</tspan>
<tspan x="10" y="2442">                    { text: 'New Hampshire' },</tspan>
<tspan x="10" y="2458">                    { text: 'Rhode Island' },</tspan>
<tspan x="10" y="2474">                    { text: 'Vermont' } ] },</tspan>
<tspan x="10" y="2490">               { text: 'South',</tspan>
<tspan x="10" y="2506">                 subs: </tspan>
<tspan x="10" y="2522">                  [ { text: 'Alabama' },</tspan>
<tspan x="10" y="2538">                    { text: 'Arkansas' },</tspan>
<tspan x="10" y="2554">                    { text: 'Florida' },</tspan>
<tspan x="10" y="2570">                    { text: 'Georgia' },</tspan>
<tspan x="10" y="2586">                    { text: 'Louisiana' },</tspan>
<tspan x="10" y="2602">                    { text: 'Mississippi' },</tspan>
<tspan x="10" y="2618">                    { text: 'North Carolina' },</tspan>
<tspan x="10" y="2634">                    { text: 'South Carolina' },</tspan>
<tspan x="10" y="2650">                    { text: 'Tennessee' },</tspan>
<tspan x="10" y="2666">                    { text: 'Virginia' } ] },</tspan>
<tspan x="10" y="2682">               { text: 'Southwest',</tspan>
<tspan x="10" y="2698">                 subs: </tspan>
<tspan x="10" y="2714">                  [ { text: 'Arizona' },</tspan>
<tspan x="10" y="2730">                    { text: 'New Mexico' },</tspan>
<tspan x="10" y="2746">                    { text: 'Texas' } ] } ] } ] } ] }</tspan>
<tspan x="10" y="2762">created apidoc file:///home/travis/build/npmdoc/node-npmdoc-feedparser/tmp/build/apidoc.html</tspan>
<tspan x="10" y="2778"></tspan>
<tspan x="10" y="2794"></tspan>
<tspan x="10" y="2810">browserTest - created electron entry-page /home/travis/build/npmdoc/node-npmdoc-feedparser/tmp/e\</tspan>
<tspan x="10" y="2826">lectron.15b3822de7f0.1d6ee9f3736cf.html</tspan>
<tspan x="10" y="2842"></tspan>
<tspan x="10" y="2858">[node test-case 1 of 6 passed] - testCase_buildLib_default</tspan>
<tspan x="10" y="2874">[node test-case 2 of 6 passed] - testCase_buildReadme_default</tspan>
<tspan x="10" y="2890">[node test-case 3 of 6 passed] - testCase_buildTest_default</tspan>
<tspan x="10" y="2906"></tspan>
<tspan x="10" y="2922">browserTest - created electron entry-page /home/travis/build/npmdoc/node-npmdoc-feedparser/tmp/e\</tspan>
<tspan x="10" y="2938">lectron.15b3822deda0.6ed3bc13305b7.html</tspan>
<tspan x="10" y="2954"></tspan>
<tspan x="10" y="2970">Xlib:  extension "RANDR" missing on display ":99.0".</tspan>
<tspan x="10" y="2986">Xlib:  extension "RANDR" missing on display ":99.0".</tspan>
<tspan x="10" y="3002">&gt; server listening on http-port 54530</tspan>
<tspan x="10" y="3018">merging file:///home/travis/build/npmdoc/node-npmdoc-feedparser/tmp/build/test-report.json to te\</tspan>
<tspan x="10" y="3034">st-report</tspan>
<tspan x="10" y="3050">Xlib:  extension "RANDR" missing on display ":99.0".</tspan>
<tspan x="10" y="3066">[4764:0404/084421:WARNING:audio_manager.cc(314)] Multiple instances of AudioManager detected</tspan>
<tspan x="10" y="3082">[4764:0404/084421:WARNING:audio_manager.cc(275)] Multiple instances of AudioManager detected</tspan>
<tspan x="10" y="3098">[4806:0404/084421:ERROR:sandbox_linux.cc(343)] InitializeSandbox() called with multiple threads \</tspan>
<tspan x="10" y="3114">in process gpu-process. </tspan>
<tspan x="10" y="3130">[4764:0404/084421:ERROR:browser_gpu_channel_host_factory.cc(131)] Failed to create channel.</tspan>
<tspan x="10" y="3146">merging file:///home/travis/build/npmdoc/node-npmdoc-feedparser/tmp/build/test-report.json to te\</tspan>
<tspan x="10" y="3162">st-report</tspan>
<tspan x="10" y="3178">Xlib:  extension "RANDR" missing on display ":99.0".</tspan>
<tspan x="10" y="3194">[4777:0404/084422:WARNING:audio_manager.cc(314)] Multiple instances of AudioManager detected</tspan>
<tspan x="10" y="3210">[4777:0404/084422:WARNING:audio_manager.cc(275)] Multiple instances of AudioManager detected</tspan>
<tspan x="10" y="3226">[4838:0404/084422:ERROR:sandbox_linux.cc(343)] InitializeSandbox() called with multiple threads \</tspan>
<tspan x="10" y="3242">in process gpu-process. </tspan>
<tspan x="10" y="3258"></tspan>
<tspan x="10" y="3274">browserTest - opened url /home/travis/build/npmdoc/node-npmdoc-feedparser/tmp/build/apidoc.html</tspan>
<tspan x="10" y="3290"></tspan>
<tspan x="10" y="3306">[4777:0404/084422:ERROR:browser_gpu_channel_host_factory.cc(131)] Failed to create channel.</tspan>
<tspan x="10" y="3322"></tspan>
<tspan x="10" y="3338">browserTest - opened url http://127.0.0.1:62913?modeTest=1</tspan>
<tspan x="10" y="3354"></tspan>
<tspan x="10" y="3370">[4777:0404/084423:INFO:CONSOLE(245)] "----------|-----------|-----------|-----------|-----------\</tspan>
<tspan x="10" y="3386">|</tspan>
<tspan x="10" y="3402">File      |   % Stmts |% Branches |   % Funcs |   % Lines |</tspan>
<tspan x="10" y="3418">----------|-----------|-----------|-----------|-----------|</tspan>
<tspan x="10" y="3434">----------|-----------|-----------|-----------|-----------|</tspan>
<tspan x="10" y="3450">All files |       100 |       100 |       100 |       100 |</tspan>
<tspan x="10" y="3466">----------|-----------|-----------|-----------|-----------|</tspan>
<tspan x="10" y="3482">", source: file:///home/travis/build/npmdoc/node-npmdoc-feedparser/tmp/electron.15b3822deda0.6ed\</tspan>
<tspan x="10" y="3498">3bc13305b7.html (245)</tspan>
<tspan x="10" y="3514">[4777:0404/084423:INFO:CONSOLE(245)] "created coverage file:///tmp/build/coverage.html/index.htm\</tspan>
<tspan x="10" y="3530">l", source: file:///home/travis/build/npmdoc/node-npmdoc-feedparser/tmp/electron.15b3822deda0.6e\</tspan>
<tspan x="10" y="3546">d3bc13305b7.html (245)</tspan>
<tspan x="10" y="3562">[node test-case 4 of 6 passed] - testCase_buildApp_default</tspan>
<tspan x="10" y="3578"></tspan>
<tspan x="10" y="3594">browserTest - created screenCapture file:///home/travis/build/npmdoc/node-npmdoc-feedparser/tmp/\</tspan>
<tspan x="10" y="3610">build/screenCapture.npmTest.browser._2Fhome_2Ftravis_2Fbuild_2Fnpmdoc_2Fnode-npmdoc-feedparser_2\</tspan>
<tspan x="10" y="3626">Ftmp_2Fbuild_2Fapidoc.html.png</tspan>
<tspan x="10" y="3642"></tspan>
<tspan x="10" y="3658">browserTest - created screenCapture file:///home/travis/build/npmdoc/node-npmdoc-feedparser/tmp/\</tspan>
<tspan x="10" y="3674">build/screenCapture.npmTest.browser._2Fhome_2Ftravis_2Fbuild_2Fnpmdoc_2Fnode-npmdoc-feedparser_2\</tspan>
<tspan x="10" y="3690">Ftmp_2Fbuild_2Fapidoc.html.html</tspan>
<tspan x="10" y="3706"></tspan>
<tspan x="10" y="3722">browserTest - exit-code 0 - /home/travis/build/npmdoc/node-npmdoc-feedparser/tmp/build/apidoc.ht\</tspan>
<tspan x="10" y="3738">ml</tspan>
<tspan x="10" y="3754"></tspan>
<tspan x="10" y="3770">[node test-case 5 of 6 passed] - testCase_buildApidoc_default</tspan>
<tspan x="10" y="3786"></tspan>
<tspan x="10" y="3802">browserTest - created screenCapture file:///home/travis/build/npmdoc/node-npmdoc-feedparser/tmp/\</tspan>
<tspan x="10" y="3818">build/screenCapture.npmTest.browser..png</tspan>
<tspan x="10" y="3834"></tspan>
<tspan x="10" y="3850">browserTest - created screenCapture file:///home/travis/build/npmdoc/node-npmdoc-feedparser/tmp/\</tspan>
<tspan x="10" y="3866">build/screenCapture.npmTest.browser..html</tspan>
<tspan x="10" y="3882"></tspan>
<tspan x="10" y="3898">browserTest - exit-code 0 - http://127.0.0.1:62913?modeTest=1</tspan>
<tspan x="10" y="3914"></tspan>
<tspan x="10" y="3930"></tspan>
<tspan x="10" y="3946">browserTest - merged coverage from /home/travis/build/npmdoc/node-npmdoc-feedparser/tmp/coverage\</tspan>
<tspan x="10" y="3962">.npmTest.browser.%2F.json</tspan>
<tspan x="10" y="3978"></tspan>
<tspan x="10" y="3994"></tspan>
<tspan x="10" y="4010">browserTest - merging test-report from /home/travis/build/npmdoc/node-npmdoc-feedparser/tmp/test\</tspan>
<tspan x="10" y="4026">-report.npmTest.browser.%2F.json</tspan>
<tspan x="10" y="4042"></tspan>
<tspan x="10" y="4058">[node test-case 6 of 6 passed] - testCase_webpage_default</tspan>
<tspan x="10" y="4074">-------------------------------|-----------|-----------|-----------|-----------|</tspan>
<tspan x="10" y="4090">File                           |   % Stmts |% Branches |   % Funcs |   % Lines |</tspan>
<tspan x="10" y="4106">-------------------------------|-----------|-----------|-----------|-----------|</tspan>
<tspan x="10" y="4122">   node-npmdoc-feedparser/     |       100 |       100 |       100 |       100 |</tspan>
<tspan x="10" y="4138">      example.js               |       100 |       100 |       100 |       100 |</tspan>
<tspan x="10" y="4154">      lib.npmdoc_feedparser.js |       100 |       100 |       100 |       100 |</tspan>
<tspan x="10" y="4170">      test.js                  |       100 |       100 |       100 |       100 |</tspan>
<tspan x="10" y="4186">-------------------------------|-----------|-----------|-----------|-----------|</tspan>
<tspan x="10" y="4202">All files                      |       100 |       100 |       100 |       100 |</tspan>
<tspan x="10" y="4218">-------------------------------|-----------|-----------|-----------|-----------|</tspan>
<tspan x="10" y="4234"></tspan>
<tspan x="10" y="4250">created coverage file:///home/travis/build/npmdoc/node-npmdoc-feedparser/tmp/build/coverage.html\</tspan>
<tspan x="10" y="4266">/index.html</tspan>
<tspan x="10" y="4282">merging file:///home/travis/build/npmdoc/node-npmdoc-feedparser/tmp/build/test-report.json to te\</tspan>
<tspan x="10" y="4298">st-report</tspan>
<tspan x="10" y="4314"></tspan>
<tspan x="10" y="4330">-------------------------------------------------------</tspan>
<tspan x="10" y="4346">| test-report - buildNpmdoc - node - linux v6.10.1 - 2017-04-04T08:44:04.233Z</tspan>
<tspan x="10" y="4362">|   26655 ms            0 failed        6 passed      |</tspan>
<tspan x="10" y="4378">-------------------------------------------------------</tspan>
<tspan x="10" y="4394"></tspan>
<tspan x="10" y="4410">created test-report file:///home/travis/build/npmdoc/node-npmdoc-feedparser/tmp/build/test-repor\</tspan>
<tspan x="10" y="4426">t.html</tspan>
<tspan x="10" y="4442"></tspan>
<tspan x="10" y="4458"></tspan>
<tspan x="10" y="4474">npmTest - 0 failed tests</tspan>
<tspan x="10" y="4490"></tspan>
<tspan x="10" y="4506"></tspan>
<tspan x="10" y="4522">[MODE_BUILD=npmTest] - 2017-04-04T08:44:34Z - EXIT_CODE - 0</tspan>
</text>
</svg>
